<svg width="40" height="40" viewBox="0 0 40 40" fill="none" xmlns="http://www.w3.org/2000/svg">
<path fill-rule="evenodd" clip-rule="evenodd" d="M40 20.0002C40 31.0457 31.0457 40 19.9998 40C8.95429 40 0 31.0457 0 20.0002C0 8.95429 8.95429 0 19.9998 0C18.5322 0 17.0691 0.16169 15.637 0.481885L16.5529 4.5795C9.48556 6.15219 4.20195 12.4589 4.20195 20.0002C4.20195 28.7251 11.2749 35.798 19.9998 35.798C28.7251 35.798 35.798 28.7251 35.798 20.0002H40ZM19.9998 0C31.0457 0 40 8.95429 40 20.0002C40 18.5326 39.8383 17.0695 39.5181 15.6374L35.4209 16.5529C33.8482 9.48596 27.5411 4.20195 19.9998 4.20195V0ZM19.9998 31.8243C24.866 31.8243 29.0461 28.8848 30.8601 24.684L27.0086 23.005C25.8426 25.7215 23.1432 27.6239 19.9998 27.6239C16.8895 27.6239 14.214 25.7613 13.0284 23.0906L9.17691 24.7697C11.0105 28.9242 15.1666 31.8243 19.9998 31.8243Z" fill="black"/>
</svg>
