<svg width="163" height="168" viewBox="0 0 163 168" fill="none" xmlns="http://www.w3.org/2000/svg">
<circle cx="81.5" cy="86.5" r="81.5" fill="#FF0000"/>
<path d="M82.008 132.536C76.376 132.536 71.4267 131.768 67.16 130.232C62.9787 128.611 59.4373 126.179 56.536 122.936C53.72 119.693 51.5867 115.597 50.136 110.648C48.7707 105.613 48.088 99.64 48.088 92.728V47.672H68.44V95.032C68.44 99.896 68.952 103.779 69.976 106.68C71 109.581 72.4933 111.672 74.456 112.952C76.504 114.232 79.0213 114.872 82.008 114.872C84.9947 114.872 87.512 114.232 89.56 112.952C91.608 111.672 93.144 109.581 94.168 106.68C95.2773 103.779 95.832 99.896 95.832 95.032V47.672H115.544V92.728C115.544 99.64 114.819 105.613 113.368 110.648C112.003 115.597 109.912 119.693 107.096 122.936C104.365 126.179 100.867 128.611 96.6 130.232C92.4187 131.768 87.5547 132.536 82.008 132.536Z" fill="white"/>
</svg>
